Coordinates
version=1
nRows=20
nColumns=63
inDegrees=yes

Units are S.I. units (second, meters, Newtons, ...)
If the header above contains a line with 'inDegrees', this indicates whether rotational values are in degrees (yes) or radians (no).

endheader
time	pelvis_tilt	pelvis_list	pelvis_rotation	pelvis_tx	pelvis_ty	pelvis_tz	hip_flexion_r	hip_adduction_r	hip_rotation_r	knee_angle_r	knee_angle_r_beta	ankle_angle_r	subtalar_angle_r	mtp_angle_r	hip_flexion_l	hip_adduction_l	hip_rotation_l	knee_angle_l	knee_angle_l_beta	ankle_angle_l	subtalar_angle_l	mtp_angle_l	L5_S1_Flex_Ext	L5_S1_Lat_Bending	L5_S1_axial_rotation	L4_L5_Flex_Ext	L4_L5_Lat_Bending	L4_L5_axial_rotation	L3_L4_Flex_Ext	L3_L4_Lat_Bending	L3_L4_axial_rotation	L2_L3_Flex_Ext	L2_L3_Lat_Bending	L2_L3_axial_rotation	L1_L2_Flex_Ext	L1_L2_Lat_Bending	L1_L2_axial_rotation	L1_T12_Flex_Ext	L1_T12_Lat_Bending	L1_T12_axial_rotation	Abs_r3	Abs_r2	Abs_r1	Abs_t1	Abs_t2	neck_flexion	neck_bending	neck_rotation	arm_flex_r	arm_add_r	arm_rot_r	elbow_flex_r	pro_sup_r	wrist_flex_r	wrist_dev_r	arm_flex_l	arm_add_l	arm_rot_l	elbow_flex_l	pro_sup_l	wrist_flex_l	wrist_dev_l
3.000000	-2.285559	-1.945716	66.679140	0.214820	0.959376	0.503124	2.050578	1.743700	15.832599	7.241810	0.126393	17.675046	-16.725658	0.000000	-1.456055	-1.917567	2.853454	1.505421	0.026275	25.109151	-5.094702	0.000000	0.113299	0.483412	2.165730	0.210408	0.642937	2.301089	0.186140	1.175367	2.301089	0.129490	1.175367	1.895014	0.105210	0.985773	1.759656	0.064739	0.748804	1.624298	0.809287	5.468448	12.045143	0.000000	0.000000	20.048949	-3.101692	-2.266843	15.285231	-7.926593	114.883789	9.593991	12.830722	-6.015611	-5.010905	25.117290	0.215255	136.902629	7.998470	19.391138	-14.998294	-4.132137
3.016949	-2.254732	-1.734199	66.523222	0.215108	0.959656	0.502832	1.820071	1.707337	15.796230	7.235830	0.126289	17.741412	-16.663426	0.000000	-1.852578	-1.834042	3.716788	1.102410	0.019241	24.980271	-6.408311	0.000000	0.105559	0.481164	2.197838	0.196034	0.639948	2.335203	0.173423	1.169902	2.335203	0.120644	1.169902	1.923108	0.098022	0.981190	1.785743	0.060317	0.745323	1.648379	0.753999	5.443024	12.223716	0.000000	0.000000	19.614540	-3.327408	-2.442317	15.458763	-7.454688	106.988736	11.651114	16.927475	-5.676880	-4.940805	25.064281	0.663527	130.843693	10.030565	23.645455	-15.385517	-4.725732
3.033898	-2.291129	-1.552808	66.419771	0.215309	0.959774	0.502816	1.707005	1.631829	15.707544	7.328016	0.127898	17.872275	-16.610452	0.000000	-2.121683	-1.709561	4.400441	0.757504	0.013221	25.001726	-7.391938	0.000000	0.099675	0.470259	2.225091	0.185106	0.625445	2.364159	0.163756	1.143389	2.364159	0.113918	1.143389	1.946954	0.092558	0.958953	1.807886	0.056954	0.728432	1.668818	0.711968	5.319668	12.375286	0.000000	0.000000	19.296769	-3.542417	-2.655567	15.520150	-7.066321	98.527038	13.968836	21.107836	-5.188986	-4.600188	24.927292	0.911390	123.028089	12.473235	28.430014	-15.417004	-4.905144
3.050847	-2.389935	-1.406751	66.371403	0.215431	0.959751	0.503115	1.712842	1.524787	15.578885	7.513347	0.131133	18.039108	-16.576752	0.000000	-2.259455	-1.551446	4.934929	0.487486	0.008508	25.128829	-8.120218	0.000000	0.095341	0.450073	2.249068	0.177058	0.598597	2.389635	0.156636	1.094308	2.389635	0.108965	1.094308	1.967935	0.088534	0.917789	1.827368	0.054478	0.697163	1.686801	0.681011	5.091318	12.508642	0.000000	0.000000	19.097373	-3.709141	-2.947867	15.491411	-6.771989	89.806176	16.514655	25.449915	-4.656451	-3.994101	24.817500	0.926151	114.072295	15.265265	33.045983	-15.348136	-4.570554
3.067797	-2.547070	-1.315080	66.384761	0.215471	0.959593	0.503698	1.843146	1.394531	15.420646	7.772252	0.135651	18.217057	-16.575036	0.000000	-2.247715	-1.372951	5.162415	0.319981	0.005585	25.376206	-8.398843	0.000000	0.094651	0.421498	2.258128	0.175776	0.560593	2.399261	0.155502	1.024831	2.399261	0.108177	1.024831	1.975862	0.087893	0.859519	1.834729	0.054084	0.652901	1.693596	0.676083	4.768072	12.559028	0.000000	0.000000	19.015328	-3.809026	-3.299684	15.379473	-6.551524	81.286472	19.236350	29.851913	-4.223011	-3.068687	24.593771	0.706823	103.606029	18.377162	38.517752	-14.746009	-3.651687
3.084746	-2.751494	-1.267561	66.461585	0.215425	0.959343	0.504555	2.081647	1.245478	15.232034	8.100329	0.141377	18.390598	-16.611268	0.000000	-2.117674	-1.170488	5.325928	0.238042	0.004155	25.621226	-8.587959	0.000000	0.094938	0.385381	2.245953	0.176310	0.512557	2.386325	0.155974	0.937016	2.386325	0.108505	0.937016	1.965209	0.088160	0.785870	1.824837	0.054248	0.596956	1.684465	0.678133	4.359511	12.491317	0.000000	0.000000	19.039834	-3.805700	-3.687587	15.235871	-6.390916	73.806356	22.043520	33.443518	-4.012778	-1.680163	24.288869	0.241229	92.134326	21.774250	44.885394	-13.551748	-2.091452
3.101695	-2.990780	-1.267806	66.597702	0.215298	0.959038	0.505642	2.419507	1.086874	15.008651	8.479735	0.147999	18.570215	-16.665318	0.000000	-1.870576	-0.955625	5.236438	0.264687	0.004620	25.888988	-8.464706	0.000000	0.097494	0.344646	2.212697	0.181056	0.458379	2.350990	0.160173	0.837971	2.350990	0.111426	0.837971	1.936110	0.090533	0.702801	1.797816	0.055708	0.533856	1.659523	0.696390	3.898700	12.306355	0.000000	0.000000	19.119035	-3.693573	-4.052337	15.023661	-6.259869	67.122379	24.839331	36.787156	-3.837895	0.209906	24.059170	-0.405533	81.489678	25.258891	51.162665	-11.871251	-0.259631
3.118644	-3.231092	-1.294849	66.795969	0.215055	0.958754	0.506895	2.818070	0.937253	14.721837	8.900928	0.155351	18.745834	-16.730233	0.000000	-1.530610	-0.759075	4.665277	0.438061	0.007646	26.199865	-7.760679	0.000000	0.099301	0.303348	2.153046	0.184413	0.403453	2.287612	0.163142	0.737560	2.287612	0.113492	0.737560	1.883915	0.092211	0.618587	1.749350	0.056741	0.469886	1.614785	0.709301	3.431532	11.974597	0.000000	0.000000	19.186120	-3.473443	-4.383735	14.811071	-6.149524	61.676140	27.516946	39.798283	-3.642526	2.547393	23.910974	-1.203454	71.341154	28.703593	57.947739	-9.703851	1.826673
3.135593	-3.475257	-1.349771	67.000134	0.214793	0.958492	0.508244	3.267265	0.795086	14.447153	9.340320	0.163019	18.933591	-16.800417	0.000000	-1.171466	-0.555150	4.352152	0.620401	0.010828	26.321476	-7.471252	0.000000	0.103022	0.261718	2.083760	0.191322	0.348084	2.213995	0.169255	0.636340	2.213995	0.117744	0.636340	1.823290	0.095666	0.533694	1.693055	0.058867	0.405400	1.562820	0.735875	2.960601	11.589250	0.000000	0.000000	19.254044	-3.171881	-4.705370	14.611090	-6.063852	57.244645	30.020881	42.667673	-3.427270	5.040188	23.926702	-2.024989	63.689353	31.910107	64.132910	-7.355104	4.163646
3.152542	-3.701335	-1.418198	67.191040	0.214515	0.958309	0.509620	3.733901	0.674221	14.209610	9.782577	0.170738	19.105886	-16.894401	0.000000	-0.801371	-0.373479	3.860817	0.849135	0.014820	26.380651	-7.010148	0.000000	0.108243	0.222586	2.011222	0.201017	0.296039	2.136923	0.177832	0.541195	2.136923	0.123710	0.541195	1.759819	0.100514	0.453897	1.634118	0.061850	0.344785	1.508416	0.773166	2.517935	11.185811	0.000000	0.000000	19.270085	-2.847237	-5.056495	14.432479	-6.015127	53.812418	32.305196	45.251480	-3.214183	7.454946	24.092338	-2.823366	58.278670	34.710549	70.010241	-5.058186	6.449262
3.169492	-3.900409	-1.498481	67.397927	0.214186	0.958213	0.510985	4.208148	0.573515	13.929791	10.228952	0.178529	19.281917	-16.945966	0.000000	-0.407501	-0.226359	3.344295	1.146845	0.020016	26.395369	-6.509322	0.000000	0.114918	0.187238	1.934741	0.213414	0.249026	2.055662	0.188798	0.455250	2.055662	0.131339	0.455250	1.692898	0.106713	0.381815	1.571977	0.065664	0.290031	1.451055	0.820846	2.118070	10.760447	0.000000	0.000000	19.261109	-2.541711	-5.448772	14.268393	-6.019784	51.014559	34.389970	47.816988	-3.000594	9.794287	24.417757	-3.526292	55.901638	36.899345	74.777327	-2.845377	8.581541
3.186441	-4.076168	-1.564597	67.560249	0.213918	0.958229	0.512257	4.651840	0.486858	13.684564	10.660675	0.186064	19.424126	-16.992052	0.000000	-0.049683	-0.088566	2.957210	1.448625	0.025283	26.363556	-6.191841	0.000000	0.122062	0.154752	1.863900	0.226681	0.205821	1.980394	0.200536	0.376265	1.980394	0.139505	0.376265	1.630912	0.113347	0.315571	1.514419	0.069746	0.239711	1.397925	0.871877	1.750589	10.366452	0.000000	0.000000	19.195547	-2.248873	-5.831329	14.176721	-6.017068	49.691668	36.057530	49.532315	-2.880751	11.738615	24.843953	-4.106596	56.176649	38.405104	78.423838	-0.678350	10.500839
3.203390	-4.209987	-1.620435	67.700169	0.213641	0.958359	0.513392	5.040963	0.426102	13.460192	11.046368	0.192795	19.536015	-17.027317	0.000000	0.293487	0.007460	2.340099	1.799484	0.031407	26.404590	-5.566232	0.000000	0.129902	0.127787	1.799336	0.241241	0.169956	1.911795	0.213416	0.310700	1.911795	0.148465	0.310700	1.574419	0.120627	0.260582	1.461961	0.074226	0.197941	1.349502	0.927879	1.445547	10.007368	0.000000	0.000000	19.083014	-2.033764	-6.308835	14.143876	-6.053265	49.455143	37.364217	50.587407	-2.815913	13.132645	25.399509	-4.507571	59.010789	39.145244	80.469161	1.595756	11.714823
3.220339	-4.310157	-1.647358	67.782498	0.213396	0.958603	0.514379	5.362301	0.381026	13.302219	11.390456	0.198801	19.598524	-17.081796	0.000000	0.594734	0.082902	1.668728	2.174806	0.037958	26.510221	-4.896055	0.000000	0.136728	0.105793	1.742929	0.253917	0.140704	1.851862	0.224630	0.257224	1.851862	0.156266	0.257224	1.525063	0.126965	0.215732	1.416130	0.078126	0.163873	1.307197	0.976633	1.196748	9.693650	0.000000	0.000000	18.910483	-1.854368	-6.748458	14.300765	-6.080631	51.113441	38.184695	50.265335	-2.817874	13.812694	26.055735	-4.676950	64.597601	39.042435	80.653686	3.898594	12.389265
3.237288	-4.358023	-1.637848	67.889167	0.213091	0.958970	0.515209	5.589925	0.354691	13.081067	11.681709	0.203884	19.644568	-17.079226	0.000000	0.855226	0.121108	0.845291	2.580924	0.045046	26.725191	-3.961409	0.000000	0.140172	0.090382	1.678651	0.260313	0.120208	1.783567	0.230288	0.219755	1.783567	0.160202	0.219755	1.468820	0.130163	0.184307	1.363904	0.080094	0.140002	1.258989	1.001232	1.022421	9.336155	0.000000	0.000000	18.678743	-1.735003	-7.165528	14.680888	-6.038269	54.898831	38.401997	48.635265	-2.836899	13.707861	26.924229	-4.656124	71.947784	38.353025	78.908888	6.387613	12.041966
3.254237	-4.390867	-1.626421	67.981942	0.212866	0.959210	0.515766	5.774088	0.338483	12.882105	11.941811	0.208424	19.719972	-17.082703	0.000000	1.100431	0.139784	-0.075946	2.994099	0.052257	27.070032	-2.859000	0.000000	0.143883	0.079488	1.596596	0.267206	0.105719	1.696384	0.236386	0.193267	1.696384	0.164444	0.193267	1.397022	0.133610	0.162091	1.297235	0.082215	0.123127	1.197447	1.027743	0.899181	8.879791	0.000000	0.000000	18.531864	-1.644100	-7.358823	14.856141	-6.153356	56.481691	38.845805	49.647357	-3.244965	13.718782	27.285349	-5.096499	74.424425	38.706283	81.314566	8.340273	12.293776
3.271186	-4.387210	-1.596801	68.060420	0.212626	0.959450	0.516126	5.899232	0.342083	12.685642	12.171625	0.212435	19.792358	-17.075096	0.000000	1.307613	0.131242	-1.077997	3.405101	0.059430	27.500061	-1.637124	0.000000	0.145467	0.076195	1.507466	0.270146	0.101339	1.601683	0.238987	0.185260	1.601683	0.166254	0.185260	1.319033	0.135080	0.155376	1.224816	0.083120	0.118025	1.130600	1.039053	0.861929	8.384076	0.000000	0.000000	18.383906	-1.598147	-7.368357	15.096355	-6.260624	58.552934	39.017156	50.483424	-3.679006	13.468665	27.551026	-5.521636	76.696995	38.966436	83.683057	9.972227	12.237475
3.288136	-4.342202	-1.552579	68.122896	0.212350	0.959689	0.516268	5.967836	0.370302	12.487065	12.375274	0.215989	19.854105	-17.056986	0.000000	1.464649	0.093975	-2.116268	3.788340	0.066119	27.978526	-0.352274	0.000000	0.145407	0.081459	1.417955	0.270036	0.108341	1.506577	0.238890	0.198060	1.506577	0.166186	0.198060	1.240710	0.135025	0.166112	1.152088	0.083086	0.126180	1.063466	1.038630	0.921482	7.886238	0.000000	0.000000	18.229958	-1.612411	-7.227064	15.362378	-6.372468	60.952707	38.983724	51.081192	-4.152451	12.892949	27.745640	-5.890649	78.819428	39.121924	85.988674	11.074144	11.811100
3.305085	-4.277299	-1.515566	68.174202	0.212047	0.959885	0.516273	6.018191	0.416441	12.296485	12.562160	0.219251	19.911350	-17.042411	0.000000	1.596130	0.036506	-3.117200	4.123208	0.071964	28.481229	0.965114	0.000000	0.145979	0.092767	1.335606	0.271098	0.123381	1.419081	0.239829	0.225555	1.419081	0.166839	0.225555	1.168655	0.135556	0.189171	1.085180	0.083412	0.143697	1.001705	1.042714	1.049404	7.428241	0.000000	0.000000	18.118169	-1.663815	-6.960215	15.628828	-6.469238	63.391896	38.790588	51.252069	-4.571943	12.083014	27.885910	-6.174975	80.709915	39.164884	88.070014	11.711017	11.107952
3.322034	-4.194502	-1.463312	68.205445	0.211747	0.960059	0.516212	6.038656	0.474961	12.128286	12.746873	0.222475	19.953505	-17.049465	0.000000	1.691218	-0.034716	-4.090319	4.430950	0.077335	28.994038	2.266827	0.000000	0.143533	0.108699	1.265521	0.266555	0.144570	1.344616	0.235810	0.264291	1.344616	0.164044	0.264291	1.107331	0.133285	0.221659	1.028236	0.082015	0.168375	0.949141	1.025242	1.229624	7.038449	0.000000	0.000000	17.978475	-1.759912	-6.556981	15.893373	-6.553815	65.674185	38.546947	50.497611	-4.943687	11.216411	28.077420	-6.392565	82.758395	39.109140	89.484977	11.557806	9.935862
